; Drill file
; Format: 2.4 (00.0000)
M48
INCH
T01C0.0236
T02C0.0283
T03C0.0315
T04C0.0984
%
G05
G90
T01
X019500Y009500
X020500Y009500
X019500Y011000
X020500Y011500
X021500Y012500
X022500Y012000
X023500Y012000
X023500Y011000
X023500Y008000
X027500Y008000
X020500Y015500
X021500Y016500
T02
X014000Y008000
X015000Y008000
X016000Y008000
X017000Y008000
X018000Y008000
X019000Y008000
X020000Y008000
X021000Y008000
X022000Y008000
X022500Y009500
X023290Y009500
X024500Y009000
X025500Y009000
X026500Y009000
X027500Y009000
X027500Y012000
X026500Y012000
X025500Y012000
X024500Y012000
X018500Y012000
X018500Y011000
X018500Y010000
X015500Y010000
X015500Y011000
X015500Y012000
X015500Y013000
X015500Y014000
X015500Y015000
X015500Y016000
X015500Y017000
X018500Y017000
X018500Y016000
X018500Y015000
X018500Y014000
X018500Y013000
T03
X019500Y013750
X019500Y014750
X019500Y015750
X019500Y016750
X021000Y012000
T04
X001500Y001500
X013000Y005000
X021250Y001500
X029750Y004750
X029750Y011750
X045750Y012500
X045000Y019000
X045750Y005500
X046500Y001500
X003250Y014750
X003000Y019000
M30
