%FSLAX34Y34*%
%MOMM*%
%LNCOPPER_TOP*%
G71*
G01*
%ADD10C,0.206*%
%ADD11C,0.400*%
%ADD12C,1.400*%
%ADD13C,2.000*%
%ADD14C,1.520*%
%ADD15C,0.600*%
%ADD16C,1.400*%
%ADD17C,1.640*%
%ADD18C,0.222*%
%LPD*%
G54D10*
X528400Y285344D02*
X535334Y285344D01*
G54D10*
X531867Y288233D02*
X531867Y282455D01*
G54D10*
X546311Y291844D02*
X539378Y291844D01*
X539378Y286788D01*
X540244Y286788D01*
X541978Y287511D01*
X543711Y287511D01*
X545444Y286788D01*
X546311Y285344D01*
X546311Y282455D01*
X545444Y281011D01*
X543711Y280288D01*
X541978Y280288D01*
X540244Y281011D01*
X539378Y282455D01*
G54D10*
X550354Y291844D02*
X554688Y280288D01*
X559021Y291844D01*
G54D10*
X422567Y380428D02*
X426033Y380428D01*
X426033Y376817D01*
X425167Y375372D01*
X423433Y374650D01*
X421700Y374650D01*
X419967Y375372D01*
X419100Y376817D01*
X419100Y384039D01*
X419967Y385483D01*
X421700Y386206D01*
X423433Y386206D01*
X425167Y385483D01*
X426033Y384039D01*
G54D10*
X430077Y374650D02*
X430077Y386206D01*
X437010Y374650D01*
X437010Y386206D01*
G54D10*
X441054Y374650D02*
X441054Y386206D01*
X445387Y386206D01*
X447121Y385483D01*
X447987Y384039D01*
X447987Y376817D01*
X447121Y375372D01*
X445387Y374650D01*
X441054Y374650D01*
G54D10*
X419100Y437006D02*
X419100Y425450D01*
X425167Y425450D01*
G54D10*
X436144Y427617D02*
X435278Y426172D01*
X433544Y425450D01*
X431811Y425450D01*
X430078Y426172D01*
X429211Y427617D01*
X429211Y434839D01*
X430078Y436283D01*
X431811Y437006D01*
X433544Y437006D01*
X435278Y436283D01*
X436144Y434839D01*
G54D10*
X440188Y425450D02*
X440188Y437006D01*
G54D10*
X447121Y425450D02*
X447121Y437006D01*
G54D10*
X440188Y431228D02*
X447121Y431228D01*
G54D10*
X426033Y402217D02*
X425167Y400772D01*
X423433Y400050D01*
X421700Y400050D01*
X419967Y400772D01*
X419100Y402217D01*
X419100Y409439D01*
X419967Y410883D01*
X421700Y411606D01*
X423433Y411606D01*
X425167Y410883D01*
X426033Y409439D01*
G54D10*
X430077Y411606D02*
X430077Y400050D01*
X436144Y400050D01*
G54D10*
X440188Y400050D02*
X440188Y411606D01*
G54D10*
X440188Y403661D02*
X447121Y411606D01*
G54D10*
X442788Y405828D02*
X447121Y400050D01*
G54D10*
X419100Y349250D02*
X419100Y360806D01*
X423433Y360806D01*
X425167Y360083D01*
X426033Y358639D01*
X426033Y351417D01*
X425167Y349972D01*
X423433Y349250D01*
X419100Y349250D01*
G54D10*
X430077Y349250D02*
X434410Y360806D01*
X438744Y349250D01*
G54D10*
X431810Y353583D02*
X437010Y353583D01*
G54D10*
X446255Y349250D02*
X446255Y360806D01*
G54D10*
X442788Y360806D02*
X449721Y360806D01*
G54D11*
X431800Y203200D02*
X431800Y177800D01*
X355600Y101600D01*
X152400Y101600D01*
X50800Y203200D01*
X50800Y266700D01*
X127000Y355600D01*
X165100Y355600D01*
G54D11*
X393700Y381000D02*
X355600Y381000D01*
X355600Y241300D01*
X381000Y215900D01*
X381000Y203200D01*
X368300Y190500D01*
X342900Y190500D01*
X330200Y203200D01*
X190500Y203200D01*
X165100Y228600D01*
G54D11*
X393700Y406400D02*
X342900Y406400D01*
X342900Y279400D01*
X336550Y273050D01*
G54D11*
X406400Y203200D02*
X368300Y165100D01*
X241300Y165100D01*
G36*
X386700Y247000D02*
X386700Y261000D01*
X400700Y261000D01*
X400700Y247000D01*
X386700Y247000D01*
G37*
X393700Y279400D02*
G54D12*
D03*
X393700Y304800D02*
G54D12*
D03*
X393700Y330200D02*
G54D12*
D03*
X393700Y355600D02*
G54D12*
D03*
X393700Y381000D02*
G54D12*
D03*
X393700Y406400D02*
G54D12*
D03*
X393700Y431800D02*
G54D12*
D03*
X469900Y431800D02*
G54D12*
D03*
X469900Y406400D02*
G54D12*
D03*
X469900Y381000D02*
G54D12*
D03*
X469900Y355600D02*
G54D12*
D03*
X469900Y330200D02*
G54D12*
D03*
X469900Y304800D02*
G54D12*
D03*
X469900Y279400D02*
G54D12*
D03*
X469900Y254000D02*
G54D12*
D03*
X533400Y304800D02*
G54D13*
D03*
X495300Y400050D02*
G54D13*
D03*
G54D11*
X469900Y406400D02*
X482600Y400050D01*
X495300Y400050D01*
G36*
X705500Y221600D02*
X691500Y221600D01*
X691500Y235600D01*
X705500Y235600D01*
X705500Y221600D01*
G37*
X673100Y228600D02*
G54D12*
D03*
X647700Y228600D02*
G54D12*
D03*
X622300Y228600D02*
G54D12*
D03*
X622300Y304800D02*
G54D12*
D03*
X647700Y304800D02*
G54D12*
D03*
X673100Y304800D02*
G54D12*
D03*
X698500Y304800D02*
G54D12*
D03*
G54D11*
X469900Y279400D02*
X495300Y304800D01*
X508000Y304800D01*
X533400Y330200D01*
X774700Y330200D01*
X774700Y393700D01*
X1104900Y393700D01*
X1104900Y50800D01*
X939800Y50800D01*
X927100Y63500D01*
X927100Y76200D01*
G54D11*
X990600Y152400D02*
X850900Y152400D01*
X825500Y127000D01*
X825500Y76200D01*
X812800Y63500D01*
X698500Y63500D01*
X698500Y152400D01*
X685800Y165100D01*
X495300Y165100D01*
X457200Y203200D01*
G54D11*
X844550Y69850D02*
X825500Y50800D01*
X685800Y50800D01*
X685800Y139700D01*
X673100Y152400D01*
X457200Y152400D01*
X419100Y114300D01*
G54D11*
X469900Y304800D02*
X482600Y304800D01*
X495300Y317500D01*
X508000Y317500D01*
X533400Y342900D01*
X762000Y342900D01*
X762000Y406400D01*
X1117600Y406400D01*
X1117600Y38100D01*
X673100Y38100D01*
X673100Y127000D01*
X660400Y139700D01*
X571500Y139700D01*
X533400Y101600D01*
X508000Y101600D01*
G54D11*
X469900Y330200D02*
X508000Y330200D01*
X533400Y355600D01*
X749300Y355600D01*
X749300Y419100D01*
X1130300Y419100D01*
X1130300Y25400D01*
X660400Y25400D01*
X660400Y76200D01*
G54D11*
X393700Y431800D02*
X317500Y431800D01*
X317500Y381000D01*
X127000Y381000D01*
X38100Y279400D01*
X38100Y190500D01*
X139700Y88900D01*
X419100Y88900D01*
X419100Y76200D01*
X431800Y63500D01*
X431800Y25400D01*
X444500Y12700D01*
X1143000Y12700D01*
X1143000Y431800D01*
X736600Y431800D01*
X736600Y368300D01*
X508000Y368300D01*
X495300Y374650D01*
X495300Y349250D02*
G54D13*
D03*
G54D11*
X393700Y304800D02*
X419100Y304800D01*
X457200Y342900D01*
X482600Y342900D01*
X495300Y349250D01*
X495300Y425450D02*
G54D13*
D03*
G36*
X566400Y195600D02*
X551200Y195600D01*
X551200Y210800D01*
X566400Y210800D01*
X566400Y195600D01*
G37*
X533400Y203200D02*
G54D14*
D03*
X508000Y203200D02*
G54D14*
D03*
X482600Y203200D02*
G54D14*
D03*
X457200Y203200D02*
G54D14*
D03*
X431800Y203200D02*
G54D14*
D03*
X406400Y203200D02*
G54D14*
D03*
X381000Y203200D02*
G54D14*
D03*
X355600Y203200D02*
G54D14*
D03*
G54D15*
X889000Y127000D02*
X876300Y127000D01*
G54D15*
X908050Y114300D02*
X857250Y114300D01*
G54D15*
X850900Y101600D02*
X914400Y101600D01*
G54D15*
X914400Y88900D02*
X850900Y88900D01*
G54D15*
X857250Y76200D02*
X908050Y76200D01*
G54D15*
X889000Y63500D02*
X876300Y63500D01*
G54D11*
X908050Y76200D02*
X927100Y76200D01*
X927100Y114300D01*
X914400Y127000D01*
X889000Y127000D01*
G54D11*
X857250Y114300D02*
X838200Y114300D01*
X838200Y76200D01*
X850900Y63500D01*
X876300Y63500D01*
G54D11*
X927100Y101600D02*
X914400Y101600D01*
G54D11*
X838200Y88900D02*
X850900Y88900D01*
G54D10*
X914400Y44450D02*
X914400Y56006D01*
X918734Y56006D01*
X920467Y55283D01*
X921334Y53839D01*
X921334Y52394D01*
X920467Y50950D01*
X918734Y50228D01*
X920467Y49506D01*
X921334Y48061D01*
X921334Y46617D01*
X920467Y45172D01*
X918734Y44450D01*
X914400Y44450D01*
G54D10*
X914400Y50228D02*
X918734Y50228D01*
G54D15*
X1041400Y177800D02*
X1028700Y177800D01*
G54D15*
X1060450Y165100D02*
X1009650Y165100D01*
G54D15*
X1003300Y152400D02*
X1066800Y152400D01*
G54D15*
X1066800Y139700D02*
X1003300Y139700D01*
G54D15*
X1009650Y127000D02*
X1060450Y127000D01*
G54D15*
X1041400Y114300D02*
X1028700Y114300D01*
G54D11*
X1060450Y127000D02*
X1079500Y127000D01*
X1079500Y165100D01*
X1066800Y177800D01*
X1041400Y177800D01*
G54D11*
X1009650Y165100D02*
X990600Y165100D01*
X990600Y127000D01*
X1003300Y114300D01*
X1028700Y114300D01*
G54D11*
X1079500Y152400D02*
X1066800Y152400D01*
G54D11*
X990600Y139700D02*
X1003300Y139700D01*
G54D10*
X1066800Y95250D02*
X1071133Y106806D01*
X1075467Y95250D01*
G54D10*
X1068533Y99583D02*
X1073733Y99583D01*
G54D15*
X622300Y127000D02*
X609600Y127000D01*
G54D15*
X641350Y114300D02*
X590550Y114300D01*
G54D15*
X584200Y101600D02*
X647700Y101600D01*
G54D15*
X647700Y88900D02*
X584200Y88900D01*
G54D15*
X590550Y76200D02*
X641350Y76200D01*
G54D15*
X622300Y63500D02*
X609600Y63500D01*
G54D11*
X641350Y76200D02*
X660400Y76200D01*
X660400Y114300D01*
X647700Y127000D01*
X622300Y127000D01*
G54D11*
X590550Y114300D02*
X571500Y114300D01*
X571500Y76200D01*
X584200Y63500D01*
X609600Y63500D01*
G54D11*
X660400Y101600D02*
X647700Y101600D01*
G54D11*
X571500Y88900D02*
X584200Y88900D01*
G54D10*
X596900Y40267D02*
X597767Y38822D01*
X599500Y38100D01*
X601233Y38100D01*
X602967Y38822D01*
X603833Y40267D01*
X603833Y41711D01*
X602967Y43156D01*
X601233Y43878D01*
X599500Y43878D01*
X597767Y44600D01*
X596900Y46044D01*
X596900Y47489D01*
X597767Y48933D01*
X599500Y49656D01*
X601233Y49656D01*
X602967Y48933D01*
X603833Y47489D01*
G54D10*
X609610Y49656D02*
X609610Y38822D01*
X610477Y38100D01*
X611344Y38389D01*
G54D10*
X607877Y44600D02*
X611344Y44600D01*
G54D10*
X615388Y43878D02*
X617121Y44600D01*
X619201Y44600D01*
X620588Y43156D01*
X620588Y38100D01*
G54D10*
X620588Y40267D02*
X619721Y41711D01*
X617988Y42000D01*
X616255Y41711D01*
X615388Y40267D01*
X615735Y38822D01*
X617121Y38100D01*
X617988Y38100D01*
X618335Y38100D01*
X619721Y38822D01*
X620588Y40267D01*
G54D10*
X624632Y38100D02*
X624632Y44600D01*
G54D10*
X624632Y43156D02*
X626365Y44600D01*
X628099Y44600D01*
G54D10*
X633876Y49656D02*
X633876Y38822D01*
X634743Y38100D01*
X635610Y38389D01*
G54D10*
X632143Y44600D02*
X635610Y44600D01*
G54D15*
X469900Y127000D02*
X457200Y127000D01*
G54D15*
X488950Y114300D02*
X438150Y114300D01*
G54D15*
X431800Y101600D02*
X495300Y101600D01*
G54D15*
X495300Y88900D02*
X431800Y88900D01*
G54D15*
X438150Y76200D02*
X488950Y76200D01*
G54D15*
X469900Y63500D02*
X457200Y63500D01*
G54D11*
X488950Y76200D02*
X508000Y76200D01*
X508000Y114300D01*
X495300Y127000D01*
X469900Y127000D01*
G54D11*
X438150Y114300D02*
X419100Y114300D01*
X419100Y76200D01*
X431800Y63500D01*
X457200Y63500D01*
G54D11*
X508000Y101600D02*
X495300Y101600D01*
G54D11*
X419100Y88900D02*
X431800Y88900D01*
G54D10*
X444500Y40267D02*
X445367Y38822D01*
X447100Y38100D01*
X448833Y38100D01*
X450567Y38822D01*
X451433Y40267D01*
X451433Y41711D01*
X450567Y43156D01*
X448833Y43878D01*
X447100Y43878D01*
X445367Y44600D01*
X444500Y46044D01*
X444500Y47489D01*
X445367Y48933D01*
X447100Y49656D01*
X448833Y49656D01*
X450567Y48933D01*
X451433Y47489D01*
G54D10*
X460677Y38822D02*
X459290Y38100D01*
X457557Y38100D01*
X455824Y38822D01*
X455477Y40267D01*
X455477Y42722D01*
X456344Y44167D01*
X458077Y44600D01*
X459810Y44167D01*
X460677Y43156D01*
X460677Y41711D01*
X455477Y41711D01*
G54D10*
X464721Y38100D02*
X464721Y49656D01*
G54D10*
X473965Y38822D02*
X472578Y38100D01*
X470845Y38100D01*
X469112Y38822D01*
X468765Y40267D01*
X468765Y42722D01*
X469632Y44167D01*
X471365Y44600D01*
X473098Y44167D01*
X473965Y43156D01*
X473965Y41711D01*
X468765Y41711D01*
G54D10*
X482342Y44167D02*
X480609Y44600D01*
X478876Y44167D01*
X478009Y42722D01*
X478009Y39833D01*
X478876Y38389D01*
X480609Y38100D01*
X482342Y38389D01*
G54D10*
X488119Y49656D02*
X488119Y38822D01*
X488986Y38100D01*
X489853Y38389D01*
G54D10*
X486386Y44600D02*
X489853Y44600D01*
G54D11*
X838200Y114300D02*
X863600Y139700D01*
X927100Y139700D01*
X939800Y127000D01*
X939800Y76200D01*
X952500Y63500D01*
X1092200Y63500D01*
X1092200Y127000D01*
X1079500Y127000D01*
G54D11*
X584200Y63500D02*
X584200Y12700D01*
G54D11*
X1079500Y317500D02*
X1079500Y190500D01*
X1016000Y190500D01*
X990600Y165100D01*
G54D15*
X215900Y190500D02*
X203200Y190500D01*
G54D15*
X234950Y177800D02*
X184150Y177800D01*
G54D15*
X177800Y165100D02*
X241300Y165100D01*
G54D15*
X241300Y152400D02*
X177800Y152400D01*
G54D15*
X184150Y139700D02*
X234950Y139700D01*
G54D15*
X215900Y127000D02*
X203200Y127000D01*
G54D11*
X234950Y139700D02*
X254000Y139700D01*
X254000Y177800D01*
X241300Y190500D01*
X215900Y190500D01*
G54D11*
X184150Y177800D02*
X165100Y177800D01*
X165100Y139700D01*
X177800Y127000D01*
X203200Y127000D01*
G54D11*
X254000Y165100D02*
X241300Y165100D01*
G54D11*
X165100Y152400D02*
X177800Y152400D01*
G54D10*
X133350Y190500D02*
X133350Y202056D01*
X137683Y202056D01*
X139417Y201333D01*
X140283Y199889D01*
X140283Y192667D01*
X139417Y191222D01*
X137683Y190500D01*
X133350Y190500D01*
G54D10*
X149527Y192233D02*
X149527Y195122D01*
X148660Y196567D01*
X146927Y197000D01*
X145194Y196567D01*
X144327Y195122D01*
X144327Y192233D01*
X145194Y190789D01*
X146927Y190500D01*
X148660Y190789D01*
X149527Y192233D01*
G54D10*
X153571Y197000D02*
X156171Y190500D01*
X158771Y197000D01*
X161371Y190500D01*
X163104Y197000D01*
G54D10*
X167148Y190500D02*
X167148Y197000D01*
G54D10*
X167148Y195556D02*
X168015Y196567D01*
X169748Y197000D01*
X171481Y196567D01*
X172348Y195556D01*
X172348Y190500D01*
G54D15*
X127000Y279400D02*
X114300Y279400D01*
G54D15*
X146050Y266700D02*
X95250Y266700D01*
G54D15*
X88900Y254000D02*
X152400Y254000D01*
G54D15*
X152400Y241300D02*
X88900Y241300D01*
G54D15*
X95250Y228600D02*
X146050Y228600D01*
G54D15*
X127000Y215900D02*
X114300Y215900D01*
G54D11*
X146050Y228600D02*
X165100Y228600D01*
X165100Y266700D01*
X152400Y279400D01*
X127000Y279400D01*
G54D11*
X95250Y266700D02*
X76200Y266700D01*
X76200Y228600D01*
X88900Y215900D01*
X114300Y215900D01*
G54D11*
X165100Y254000D02*
X152400Y254000D01*
G54D11*
X76200Y241300D02*
X88900Y241300D01*
G54D10*
X114300Y316356D02*
X114300Y304800D01*
X120367Y304800D01*
G54D10*
X129611Y305522D02*
X128224Y304800D01*
X126491Y304800D01*
X124758Y305522D01*
X124411Y306967D01*
X124411Y309422D01*
X125278Y310867D01*
X127011Y311300D01*
X128744Y310867D01*
X129611Y309856D01*
X129611Y308411D01*
X124411Y308411D01*
G54D10*
X135388Y304800D02*
X135388Y315633D01*
X136255Y316356D01*
X137122Y315922D01*
G54D10*
X133655Y311300D02*
X137122Y311300D01*
G54D10*
X142899Y316356D02*
X142899Y305522D01*
X143766Y304800D01*
X144633Y305089D01*
G54D10*
X141166Y311300D02*
X144633Y311300D01*
G54D15*
X304800Y279400D02*
X292100Y279400D01*
G54D15*
X323850Y266700D02*
X273050Y266700D01*
G54D15*
X266700Y254000D02*
X330200Y254000D01*
G54D15*
X330200Y241300D02*
X266700Y241300D01*
G54D15*
X273050Y228600D02*
X323850Y228600D01*
G54D15*
X304800Y215900D02*
X292100Y215900D01*
G54D11*
X323850Y228600D02*
X342900Y228600D01*
X342900Y266700D01*
X330200Y279400D01*
X304800Y279400D01*
G54D11*
X273050Y266700D02*
X254000Y266700D01*
X254000Y228600D01*
X266700Y215900D01*
X292100Y215900D01*
G54D11*
X342900Y254000D02*
X330200Y254000D01*
G54D11*
X254000Y241300D02*
X266700Y241300D01*
G54D10*
X282867Y310578D02*
X285467Y309133D01*
X286333Y307689D01*
X286333Y304800D01*
G54D10*
X279400Y304800D02*
X279400Y316356D01*
X283733Y316356D01*
X285467Y315633D01*
X286333Y314189D01*
X286333Y312744D01*
X285467Y311300D01*
X283733Y310578D01*
X279400Y310578D01*
G54D10*
X290377Y304800D02*
X290377Y311300D01*
G54D10*
X290377Y313467D02*
X290377Y313467D01*
G54D10*
X294421Y302633D02*
X296154Y301911D01*
X297368Y301911D01*
X299101Y302633D01*
X299621Y304078D01*
X299621Y311300D01*
G54D10*
X299621Y309422D02*
X298754Y310867D01*
X297021Y311300D01*
X295288Y310867D01*
X294421Y309422D01*
X294421Y306533D01*
X295288Y305089D01*
X297021Y304800D01*
X298754Y305089D01*
X299621Y306533D01*
G54D10*
X303665Y304800D02*
X303665Y316356D01*
G54D10*
X303665Y309422D02*
X304532Y310867D01*
X306265Y311300D01*
X307998Y310867D01*
X308865Y309422D01*
X308865Y304800D01*
G54D10*
X314642Y316356D02*
X314642Y305522D01*
X315509Y304800D01*
X316376Y305089D01*
G54D10*
X312909Y311300D02*
X316376Y311300D01*
G54D15*
X215900Y368300D02*
X203200Y368300D01*
G54D15*
X234950Y355600D02*
X184150Y355600D01*
G54D15*
X177800Y342900D02*
X241300Y342900D01*
G54D15*
X241300Y330200D02*
X177800Y330200D01*
G54D15*
X184150Y317500D02*
X234950Y317500D01*
G54D15*
X215900Y304800D02*
X203200Y304800D01*
G54D11*
X234950Y317500D02*
X254000Y317500D01*
X254000Y355600D01*
X241300Y368300D01*
X215900Y368300D01*
G54D11*
X184150Y355600D02*
X165100Y355600D01*
X165100Y317500D01*
X177800Y304800D01*
X203200Y304800D01*
G54D11*
X254000Y342900D02*
X241300Y342900D01*
G54D11*
X165100Y330200D02*
X177800Y330200D01*
G54D10*
X203200Y405256D02*
X203200Y395867D01*
X204067Y394422D01*
X205800Y393700D01*
X207533Y393700D01*
X209267Y394422D01*
X210133Y395867D01*
X210133Y405256D01*
G54D10*
X214177Y400200D02*
X214177Y390811D01*
G54D10*
X214177Y395867D02*
X215044Y393989D01*
X216777Y393700D01*
X218510Y393989D01*
X219377Y395433D01*
X219377Y398322D01*
X218510Y399767D01*
X216777Y400200D01*
X215044Y399767D01*
X214177Y398033D01*
G54D11*
G75*
G01X241300Y247650D02*
G03X241300Y247650I-31750J0D01*
G01*
G36*
G75*
G01X241300Y247650D02*
G03X241300Y247650I-31750J0D01*
G01*
G37*
X241300Y247650D01*
G54D11*
X165100Y139700D02*
X88900Y215900D01*
G54D11*
X76200Y266700D02*
X101600Y292100D01*
X228600Y292100D01*
X254000Y317500D01*
G54D11*
X254000Y266700D02*
X228600Y292100D01*
G54D11*
X241300Y368300D02*
X241300Y381000D01*
G54D11*
X393700Y330200D02*
X381000Y330200D01*
X381000Y241300D01*
X382080Y240884D01*
X393700Y228600D01*
X406400Y215900D01*
X419100Y215900D01*
X431800Y203200D01*
G54D11*
X546100Y317500D02*
X520700Y292100D01*
X506400Y292100D01*
X495300Y279400D01*
X469900Y254000D01*
G54D11*
X647700Y228600D02*
X647700Y203200D01*
X698500Y203200D01*
G54D11*
X1079500Y127000D02*
X1092200Y127000D01*
X1092200Y381000D01*
X787400Y381000D01*
X787400Y317500D01*
X571500Y317500D01*
X571500Y241300D01*
G54D11*
X342900Y228600D02*
X342900Y215900D01*
X355600Y203200D01*
G54D11*
X469900Y330200D02*
X419100Y279400D01*
X419100Y241300D01*
X431800Y228600D01*
X444500Y228600D01*
X457200Y215900D01*
X469900Y215900D01*
X482600Y203200D01*
G54D11*
X469900Y304800D02*
X431800Y266700D01*
X431800Y254000D01*
X457200Y228600D01*
X469900Y228600D01*
X482600Y215900D01*
X495300Y215900D01*
X508000Y203200D01*
G54D11*
X393700Y355600D02*
X368300Y355600D01*
X368300Y241300D01*
X406400Y203200D01*
G54D11*
X393700Y254000D02*
X393700Y241300D01*
X406400Y228600D01*
X419100Y228600D01*
X431800Y215900D01*
X444500Y215900D01*
X457200Y203200D01*
G54D11*
X469900Y279400D02*
X457200Y279400D01*
X444500Y266700D01*
X444500Y254000D01*
X457200Y241300D01*
X469900Y241300D01*
X482600Y228600D01*
X495300Y228600D01*
X508000Y215900D01*
X520700Y215900D01*
X533400Y203200D01*
X495300Y279400D02*
G54D16*
D03*
X596900Y279400D02*
G54D16*
D03*
X596900Y203200D02*
G54D16*
D03*
X698500Y203200D02*
G54D16*
D03*
G54D11*
X844550Y260350D02*
X838200Y254000D01*
X749300Y254000D01*
X698500Y203200D01*
X571500Y241300D02*
G54D17*
D03*
X591600Y241300D02*
G54D17*
D03*
G54D11*
X558800Y203200D02*
X571500Y190500D01*
X609600Y190500D01*
X622300Y203200D01*
X622300Y228600D01*
G54D11*
X673100Y228600D02*
X673100Y254000D01*
X596900Y254000D01*
X584200Y266700D01*
X584200Y292100D01*
X635000Y292100D01*
X647700Y304800D01*
G54D11*
X596900Y279400D02*
X647700Y279400D01*
X673100Y304800D01*
G54D11*
X495300Y425450D02*
X482600Y425450D01*
X469900Y431800D01*
G54D11*
X533400Y203200D02*
X558800Y177800D01*
X698500Y177800D01*
X762000Y241300D01*
X901700Y241300D01*
X927100Y266700D01*
G54D15*
X889000Y317500D02*
X876300Y317500D01*
G54D15*
X908050Y304800D02*
X857250Y304800D01*
G54D15*
X850900Y292100D02*
X914400Y292100D01*
G54D15*
X914400Y279400D02*
X850900Y279400D01*
G54D15*
X857250Y266700D02*
X908050Y266700D01*
G54D15*
X889000Y254000D02*
X876300Y254000D01*
G54D11*
X908050Y266700D02*
X927100Y266700D01*
X927100Y304800D01*
X914400Y317500D01*
X889000Y317500D01*
G54D11*
X857250Y304800D02*
X838200Y304800D01*
X838200Y266700D01*
X850900Y254000D01*
X876300Y254000D01*
G54D11*
X927100Y292100D02*
X914400Y292100D01*
G54D11*
X838200Y279400D02*
X850900Y279400D01*
G54D10*
X854367Y215900D02*
X854367Y227456D01*
G54D10*
X850900Y227456D02*
X857833Y227456D01*
G54D10*
X867077Y222400D02*
X867077Y215900D01*
G54D10*
X867077Y217344D02*
X866210Y216189D01*
X864477Y215900D01*
X862744Y216189D01*
X861877Y217344D01*
X861877Y222400D01*
G54D10*
X871121Y215900D02*
X871121Y222400D01*
G54D10*
X871121Y220956D02*
X872854Y222400D01*
X874588Y222400D01*
G54D10*
X878632Y215900D02*
X878632Y227456D01*
G54D10*
X878632Y220522D02*
X879499Y221967D01*
X881232Y222400D01*
X882965Y221967D01*
X883832Y220522D01*
X883832Y217633D01*
X882965Y216189D01*
X881232Y215900D01*
X879499Y216189D01*
X878632Y217633D01*
G54D10*
X893076Y217633D02*
X893076Y220522D01*
X892209Y221967D01*
X890476Y222400D01*
X888743Y221967D01*
X887876Y220522D01*
X887876Y217633D01*
X888743Y216189D01*
X890476Y215900D01*
X892209Y216189D01*
X893076Y217633D01*
G54D10*
X901337Y215900D02*
X901337Y227456D01*
X905670Y227456D01*
X907404Y226733D01*
X908270Y225289D01*
X908270Y223844D01*
X907404Y222400D01*
X905670Y221678D01*
X907404Y220956D01*
X908270Y219511D01*
X908270Y218067D01*
X907404Y216622D01*
X905670Y215900D01*
X901337Y215900D01*
G54D10*
X901337Y221678D02*
X905670Y221678D01*
G54D15*
X1041400Y368300D02*
X1028700Y368300D01*
G54D15*
X1060450Y355600D02*
X1009650Y355600D01*
G54D15*
X1003300Y342900D02*
X1066800Y342900D01*
G54D15*
X1066800Y330200D02*
X1003300Y330200D01*
G54D15*
X1009650Y317500D02*
X1060450Y317500D01*
G54D15*
X1041400Y304800D02*
X1028700Y304800D01*
G54D11*
X1060450Y317500D02*
X1079500Y317500D01*
X1079500Y355600D01*
X1066800Y368300D01*
X1041400Y368300D01*
G54D11*
X1009650Y355600D02*
X990600Y355600D01*
X990600Y317500D01*
X1003300Y304800D01*
X1028700Y304800D01*
G54D11*
X1079500Y342900D02*
X1066800Y342900D01*
G54D11*
X990600Y330200D02*
X1003300Y330200D01*
G54D10*
X1006767Y279400D02*
X1006767Y290956D01*
G54D10*
X1003300Y290956D02*
X1010233Y290956D01*
G54D10*
X1019477Y285900D02*
X1019477Y279400D01*
G54D10*
X1019477Y280844D02*
X1018610Y279689D01*
X1016877Y279400D01*
X1015144Y279689D01*
X1014277Y280844D01*
X1014277Y285900D01*
G54D10*
X1023521Y279400D02*
X1023521Y285900D01*
G54D10*
X1023521Y284456D02*
X1025254Y285900D01*
X1026988Y285900D01*
G54D10*
X1031032Y279400D02*
X1031032Y290956D01*
G54D10*
X1031032Y284022D02*
X1031899Y285467D01*
X1033632Y285900D01*
X1035365Y285467D01*
X1036232Y284022D01*
X1036232Y281133D01*
X1035365Y279689D01*
X1033632Y279400D01*
X1031899Y279689D01*
X1031032Y281133D01*
G54D10*
X1045476Y281133D02*
X1045476Y284022D01*
X1044609Y285467D01*
X1042876Y285900D01*
X1041143Y285467D01*
X1040276Y284022D01*
X1040276Y281133D01*
X1041143Y279689D01*
X1042876Y279400D01*
X1044609Y279689D01*
X1045476Y281133D01*
G54D10*
X1053737Y279400D02*
X1058070Y290956D01*
X1062404Y279400D01*
G54D10*
X1055470Y283733D02*
X1060670Y283733D01*
G54D11*
X838200Y304800D02*
X863600Y330200D01*
X990600Y330200D01*
X495300Y374650D02*
G54D13*
D03*
G54D11*
X469900Y381000D02*
X457200Y393700D01*
X406400Y393700D01*
X406400Y431800D01*
X393700Y431800D01*
X520700Y292100D02*
G54D16*
D03*
X520700Y393700D02*
G54D16*
D03*
X546100Y317500D02*
G54D16*
D03*
X546100Y419100D02*
G54D16*
D03*
G54D11*
X495300Y425450D02*
X508000Y419100D01*
X546100Y419100D01*
G54D11*
X495300Y400050D02*
X508000Y393700D01*
X520700Y393700D01*
G54D11*
X622300Y228600D02*
X635000Y241300D01*
X660400Y241300D01*
X660400Y215900D01*
X685800Y215900D01*
X685800Y292100D01*
X698500Y304800D01*
G54D11*
X698500Y228600D02*
X698500Y279400D01*
X711200Y292100D01*
X711200Y317500D01*
G54D11*
X591600Y241300D02*
X596900Y254000D01*
G54D11*
X591600Y241300D02*
X591224Y208876D01*
X596900Y203200D01*
G54D11*
X520700Y241300D02*
X571500Y241300D01*
G54D11*
X495300Y279400D02*
X495300Y241300D01*
X533400Y215900D01*
X546100Y215900D01*
X558800Y203200D01*
G54D11*
X609202Y304424D02*
X621924Y304424D01*
X622300Y304800D01*
G54D11*
X596900Y304800D02*
X621924Y304424D01*
X622300Y304800D01*
G54D11*
X469900Y381000D02*
X482600Y374650D01*
X495300Y374650D01*
G54D18*
X127000Y38100D02*
X127000Y55878D01*
G54D18*
X127000Y45211D02*
X128333Y47433D01*
X131000Y48100D01*
X133667Y47433D01*
X135000Y45211D01*
X135000Y38100D01*
G54D18*
X142556Y55878D02*
X142556Y39211D01*
X143889Y38100D01*
X145222Y38544D01*
G54D18*
X139889Y48100D02*
X145222Y48100D01*
G54D18*
X152778Y55878D02*
X152778Y39211D01*
X154111Y38100D01*
X155444Y38544D01*
G54D18*
X150111Y48100D02*
X155444Y48100D01*
G54D18*
X160333Y48100D02*
X160333Y33656D01*
G54D18*
X160333Y41433D02*
X161666Y38544D01*
X164333Y38100D01*
X167000Y38544D01*
X168333Y40767D01*
X168333Y45211D01*
X167000Y47433D01*
X164333Y48100D01*
X161666Y47433D01*
X160333Y44767D01*
G54D18*
X173222Y39211D02*
X175889Y38100D01*
X178555Y38100D01*
X181222Y39211D01*
X181222Y41433D01*
X179889Y42544D01*
X174555Y43656D01*
X173222Y44767D01*
X173222Y46989D01*
X175889Y48100D01*
X178555Y48100D01*
X181222Y46989D01*
G54D18*
X186111Y38100D02*
X187178Y38100D01*
X187178Y38989D01*
X186111Y38989D01*
X186111Y38100D01*
G54D18*
X187178Y51433D02*
X186111Y51433D01*
X186111Y52322D01*
X187178Y52322D01*
X187178Y51433D01*
G54D18*
X192067Y38100D02*
X202734Y55878D01*
G54D18*
X207623Y38100D02*
X218290Y55878D01*
G54D18*
X223179Y38100D02*
X223179Y48100D01*
G54D18*
X223179Y46322D02*
X225846Y48100D01*
X228512Y47433D01*
X229846Y45878D01*
X229846Y38100D01*
G54D18*
X229846Y46322D02*
X232512Y48100D01*
X235179Y47433D01*
X236512Y45878D01*
X236512Y38100D01*
G54D18*
X249401Y39211D02*
X247268Y38100D01*
X244601Y38100D01*
X241934Y39211D01*
X241401Y41433D01*
X241401Y45211D01*
X242734Y47433D01*
X245401Y48100D01*
X248068Y47433D01*
X249401Y45878D01*
X249401Y43656D01*
X241401Y43656D01*
G54D18*
X254290Y38100D02*
X254290Y55878D01*
G54D18*
X259179Y48100D02*
X264512Y38100D01*
X269846Y48100D01*
G54D18*
X282735Y39211D02*
X280602Y38100D01*
X277935Y38100D01*
X275268Y39211D01*
X274735Y41433D01*
X274735Y45211D01*
X276068Y47433D01*
X278735Y48100D01*
X281402Y47433D01*
X282735Y45878D01*
X282735Y43656D01*
X274735Y43656D01*
G54D18*
X287624Y38100D02*
X287624Y48100D01*
G54D18*
X287624Y45878D02*
X288957Y47433D01*
X291624Y48100D01*
X294291Y47433D01*
X295624Y45878D01*
X295624Y38100D01*
G54D18*
X301580Y38100D02*
X300513Y38100D01*
X300513Y38989D01*
X301580Y38989D01*
X301580Y38100D01*
X300513Y38100D01*
G54D18*
X306469Y38100D02*
X306469Y48100D01*
G54D18*
X306469Y45878D02*
X309136Y48100D01*
X311802Y48100D01*
G54D18*
X324691Y48100D02*
X324691Y38100D01*
G54D18*
X324691Y40322D02*
X323358Y38544D01*
X320691Y38100D01*
X318024Y38544D01*
X316691Y40322D01*
X316691Y48100D01*
G54D18*
X145033Y444500D02*
X145033Y462278D01*
G54D18*
X139700Y462278D02*
X150367Y462278D01*
G54D18*
X165923Y462278D02*
X165923Y447833D01*
X164589Y445611D01*
X161923Y444500D01*
X159256Y444500D01*
X156589Y445611D01*
X155256Y447833D01*
G54D18*
X170812Y444500D02*
X170812Y462278D01*
G54D18*
X170812Y450056D02*
X181479Y462278D01*
G54D18*
X174812Y453389D02*
X181479Y444500D01*
G54D18*
X186368Y452278D02*
X197035Y452278D01*
G54D18*
X201924Y458944D02*
X203257Y461167D01*
X205924Y462278D01*
X208591Y462278D01*
X211257Y461167D01*
X212591Y458944D01*
X212591Y456722D01*
X211257Y454500D01*
X208591Y453389D01*
X211257Y452278D01*
X212591Y450056D01*
X212591Y447833D01*
X211257Y445611D01*
X208591Y444500D01*
X205924Y444500D01*
X203257Y445611D01*
X201924Y447833D01*
G54D18*
X228147Y458944D02*
X228147Y447833D01*
X226813Y445611D01*
X224147Y444500D01*
X221480Y444500D01*
X218813Y445611D01*
X217480Y447833D01*
X217480Y458944D01*
X218813Y461167D01*
X221480Y462278D01*
X224147Y462278D01*
X226813Y461167D01*
X228147Y458944D01*
G54D18*
X241036Y444500D02*
X241036Y462278D01*
X233036Y451167D01*
X233036Y448944D01*
X243703Y448944D01*
X596900Y304800D02*
G54D16*
D03*
X571500Y304800D02*
G54D16*
D03*
X520700Y241300D02*
G54D16*
D03*
X495300Y241300D02*
G54D16*
D03*
M02*
