%FSLAX34Y34*%
%MOMM*%
%LNSILK_BOTTOM*%
G71*
G01*
%ADD10C,0.150*%
%ADD11C,0.206*%
%ADD12C,0.144*%
%LPD*%
G54D10*
X457200Y241300D02*
X406400Y241300D01*
X406400Y444500D01*
X457200Y444500D01*
X457200Y241300D01*
G54D10*
X444500Y241300D02*
X419100Y241300D01*
X419100Y254000D01*
X444500Y254000D01*
X444500Y241300D01*
G54D11*
X426439Y296689D02*
X437995Y296689D01*
G54D11*
X426439Y303622D02*
X437995Y303622D01*
G54D11*
X432217Y296689D02*
X432217Y303622D01*
G54D11*
X426439Y313733D02*
X426439Y307666D01*
X437995Y307666D01*
X437995Y313733D01*
G54D11*
X432217Y307666D02*
X432217Y313733D01*
G54D11*
X426439Y317777D02*
X437995Y317777D01*
X437995Y323844D01*
G54D11*
X432217Y317777D02*
X432217Y323844D01*
G54D11*
X426439Y333088D02*
X437995Y333088D01*
X430773Y327888D01*
X429328Y327888D01*
X429328Y334821D01*
G54D11*
X435828Y345798D02*
X428606Y345798D01*
X427161Y344932D01*
X426439Y343198D01*
X426439Y341465D01*
X427161Y339732D01*
X428606Y338865D01*
X435828Y338865D01*
X437273Y339732D01*
X437995Y341465D01*
X437995Y343198D01*
X437273Y344932D01*
X435828Y345798D01*
G54D11*
X426439Y356775D02*
X426439Y349842D01*
X427161Y349842D01*
X428606Y350709D01*
X432939Y355909D01*
X434384Y356775D01*
X435828Y356775D01*
X437273Y355909D01*
X437995Y354175D01*
X437995Y352442D01*
X437273Y350709D01*
X435828Y349842D01*
G54D11*
X433661Y360819D02*
X437995Y365152D01*
X426439Y365152D01*
G54D11*
X426439Y369196D02*
X437995Y369196D01*
X437995Y373529D01*
X437273Y375263D01*
X435828Y376129D01*
X434384Y376129D01*
X432939Y375263D01*
X432217Y373529D01*
X431495Y375263D01*
X430050Y376129D01*
X428606Y376129D01*
X427161Y375263D01*
X426439Y373529D01*
X426439Y369196D01*
G54D11*
X432217Y369196D02*
X432217Y373529D01*
G54D10*
X711200Y292100D02*
X711200Y241300D01*
X609600Y241300D01*
X609600Y292100D01*
X711200Y292100D01*
G54D10*
X711200Y279400D02*
X711200Y254000D01*
X698500Y254000D01*
X698500Y279400D01*
X711200Y279400D01*
G54D11*
X694348Y260796D02*
X687415Y260796D01*
G54D11*
X690882Y260796D02*
X690882Y272351D01*
G54D11*
X694348Y272351D02*
X687415Y272351D01*
G54D11*
X676438Y262962D02*
X677305Y261518D01*
X679038Y260796D01*
X680771Y260796D01*
X682505Y261518D01*
X683371Y262962D01*
X683371Y270185D01*
X682505Y271629D01*
X680771Y272351D01*
X679038Y272351D01*
X677305Y271629D01*
X676438Y270185D01*
G54D11*
X672394Y260796D02*
X672394Y272351D01*
X668061Y265129D01*
X663728Y272351D01*
X663728Y260796D01*
G54D11*
X659683Y272351D02*
X652750Y272351D01*
X653617Y270907D01*
X655350Y268740D01*
X657083Y265851D01*
X657950Y263685D01*
X657950Y260796D01*
G54D11*
X641773Y272351D02*
X648706Y272351D01*
X648706Y267296D01*
X647840Y267296D01*
X646106Y268018D01*
X644373Y268018D01*
X642640Y267296D01*
X641773Y265851D01*
X641773Y262962D01*
X642640Y261518D01*
X644373Y260796D01*
X646106Y260796D01*
X647840Y261518D01*
X648706Y262962D01*
G54D11*
X630796Y272351D02*
X637729Y272351D01*
X637729Y267296D01*
X636863Y267296D01*
X635129Y268018D01*
X633396Y268018D01*
X631663Y267296D01*
X630796Y265851D01*
X630796Y262962D01*
X631663Y261518D01*
X633396Y260796D01*
X635129Y260796D01*
X636863Y261518D01*
X637729Y262962D01*
G54D11*
X619819Y272351D02*
X626752Y272351D01*
X626752Y267296D01*
X625886Y267296D01*
X624152Y268018D01*
X622419Y268018D01*
X620686Y267296D01*
X619819Y265851D01*
X619819Y262962D01*
X620686Y261518D01*
X622419Y260796D01*
X624152Y260796D01*
X625886Y261518D01*
X626752Y262962D01*
G54D10*
X571500Y190500D02*
X571500Y215900D01*
X342900Y215900D01*
X342900Y190500D01*
X571500Y190500D01*
G54D11*
X469206Y229545D02*
X464873Y233878D01*
X464873Y222322D01*
G54D11*
X453896Y231711D02*
X453896Y224489D01*
X454763Y223045D01*
X456496Y222322D01*
X458229Y222322D01*
X459963Y223045D01*
X460829Y224489D01*
X460829Y231711D01*
X459963Y233156D01*
X458229Y233878D01*
X456496Y233878D01*
X454763Y233156D01*
X453896Y231711D01*
G54D11*
X449852Y222322D02*
X449852Y233878D01*
G54D11*
X449852Y225934D02*
X442919Y233878D01*
G54D11*
X447252Y228100D02*
X442919Y222322D01*
G54D10*
X527100Y288900D02*
X527100Y269900D01*
X565100Y269900D01*
X565100Y288900D01*
X527100Y288900D01*
G54D10*
X527000Y279400D02*
X506400Y279400D01*
G54D10*
X585800Y279400D02*
X565200Y279400D01*
G54D11*
X559714Y281298D02*
X555381Y285631D01*
X555381Y274076D01*
G54D11*
X544404Y283465D02*
X544404Y276242D01*
X545270Y274798D01*
X547004Y274076D01*
X548737Y274076D01*
X550470Y274798D01*
X551337Y276242D01*
X551337Y283465D01*
X550470Y284909D01*
X548737Y285631D01*
X547004Y285631D01*
X545270Y284909D01*
X544404Y283465D01*
G54D11*
X540360Y274076D02*
X540360Y285631D01*
G54D11*
X540360Y277687D02*
X533427Y285631D01*
G54D11*
X537760Y279854D02*
X533427Y274076D01*
G54D10*
X628700Y212700D02*
X628700Y193700D01*
X666700Y193700D01*
X666700Y212700D01*
X628700Y212700D01*
G54D10*
X628600Y203200D02*
X608000Y203200D01*
G54D10*
X687400Y203200D02*
X666800Y203200D01*
G54D11*
X655893Y197354D02*
X662827Y197354D01*
X662827Y198076D01*
X661960Y199520D01*
X656760Y203854D01*
X655893Y205298D01*
X655893Y206743D01*
X656760Y208187D01*
X658493Y208909D01*
X660227Y208909D01*
X661960Y208187D01*
X662827Y206743D01*
G54D11*
X646650Y197354D02*
X646650Y208909D01*
X651850Y201687D01*
X651850Y200243D01*
X644916Y200243D01*
G54D11*
X640873Y197354D02*
X640873Y208909D01*
G54D11*
X640873Y200965D02*
X633939Y208909D01*
G54D11*
X638273Y203132D02*
X633939Y197354D01*
G54D10*
X595400Y228600D02*
X587800Y228600D01*
G54D10*
X591600Y232400D02*
X591600Y224800D01*
G54D10*
G75*
G01X606596Y241150D02*
G03X606596Y241150I-25050J0D01*
G01*
G54D11*
X553650Y221067D02*
X553650Y232622D01*
X558850Y225400D01*
X558850Y223956D01*
X551917Y223956D01*
G54D11*
X546140Y221067D02*
X546140Y219622D01*
X547006Y218178D01*
X547873Y218178D01*
G54D11*
X542096Y232622D02*
X535163Y232622D01*
X536029Y231178D01*
X537763Y229011D01*
X539496Y226122D01*
X540363Y223956D01*
X540363Y221067D01*
G54D11*
X525919Y227567D02*
X525919Y221067D01*
G54D11*
X525919Y222511D02*
X526786Y221356D01*
X528519Y221067D01*
X530252Y221356D01*
X531119Y222511D01*
X531119Y227567D01*
G54D11*
X515227Y308983D02*
X508294Y308983D01*
G54D11*
X511760Y311872D02*
X511760Y306094D01*
G54D11*
X497317Y315483D02*
X504250Y315483D01*
X504250Y310428D01*
X503383Y310428D01*
X501650Y311150D01*
X499917Y311150D01*
X498183Y310428D01*
X497317Y308983D01*
X497317Y306094D01*
X498183Y304650D01*
X499917Y303928D01*
X501650Y303928D01*
X503383Y304650D01*
X504250Y306094D01*
G54D11*
X493273Y315483D02*
X488940Y303928D01*
X484606Y315483D01*
G54D11*
X508000Y330200D02*
X508000Y341756D01*
X503667Y341756D01*
X501933Y341033D01*
X501067Y339589D01*
X501067Y332367D01*
X501933Y330922D01*
X503667Y330200D01*
X508000Y330200D01*
G54D11*
X497023Y330200D02*
X492690Y341756D01*
X488356Y330200D01*
G54D11*
X495290Y334533D02*
X490090Y334533D01*
G54D11*
X480845Y330200D02*
X480845Y341756D01*
G54D11*
X484312Y341756D02*
X477379Y341756D01*
G54D11*
X508000Y417956D02*
X508000Y406400D01*
X501933Y406400D01*
G54D11*
X490956Y408567D02*
X491822Y407122D01*
X493556Y406400D01*
X495289Y406400D01*
X497022Y407122D01*
X497889Y408567D01*
X497889Y415789D01*
X497022Y417233D01*
X495289Y417956D01*
X493556Y417956D01*
X491822Y417233D01*
X490956Y415789D01*
G54D11*
X486912Y406400D02*
X486912Y417956D01*
G54D11*
X479979Y406400D02*
X479979Y417956D01*
G54D11*
X486912Y412178D02*
X479979Y412178D01*
G54D11*
X501067Y383167D02*
X501933Y381722D01*
X503667Y381000D01*
X505400Y381000D01*
X507133Y381722D01*
X508000Y383167D01*
X508000Y390389D01*
X507133Y391833D01*
X505400Y392556D01*
X503667Y392556D01*
X501933Y391833D01*
X501067Y390389D01*
G54D11*
X497023Y392556D02*
X497023Y381000D01*
X490956Y381000D01*
G54D11*
X486912Y381000D02*
X486912Y392556D01*
G54D11*
X486912Y384611D02*
X479979Y392556D01*
G54D11*
X484312Y386778D02*
X479979Y381000D01*
G54D11*
X504533Y361378D02*
X501067Y361378D01*
X501067Y357767D01*
X501933Y356322D01*
X503667Y355600D01*
X505400Y355600D01*
X507133Y356322D01*
X508000Y357767D01*
X508000Y364989D01*
X507133Y366433D01*
X505400Y367156D01*
X503667Y367156D01*
X501933Y366433D01*
X501067Y364989D01*
G54D11*
X497023Y355600D02*
X497023Y367156D01*
X490090Y355600D01*
X490090Y367156D01*
G54D11*
X486046Y355600D02*
X486046Y367156D01*
X481713Y367156D01*
X479979Y366433D01*
X479113Y364989D01*
X479113Y357767D01*
X479979Y356322D01*
X481713Y355600D01*
X486046Y355600D01*
G54D10*
X511200Y323900D02*
X530200Y323900D01*
X530200Y361900D01*
X511200Y361900D01*
X511200Y323900D01*
G54D10*
X520700Y323800D02*
X520700Y303200D01*
G54D10*
X520700Y382600D02*
X520700Y362000D01*
G54D10*
X536600Y349300D02*
X555600Y349300D01*
X555600Y387300D01*
X536600Y387300D01*
X536600Y349300D01*
G54D10*
X546100Y349200D02*
X546100Y328600D01*
G54D10*
X546100Y408000D02*
X546100Y387400D01*
G54D10*
X607300Y317500D02*
X607300Y292100D01*
X561100Y292100D01*
X561100Y317500D01*
X607300Y317500D01*
G54D10*
X585800Y312800D02*
X585800Y296800D01*
G54D10*
X582600Y312800D02*
X582600Y296800D01*
G54D10*
X585800Y304800D02*
X587400Y304800D01*
G54D10*
X582600Y304800D02*
X581000Y304800D01*
G54D12*
X601117Y334139D02*
X601117Y326917D01*
X601983Y325472D01*
X603717Y324750D01*
X605450Y324750D01*
X607183Y325472D01*
X608050Y326917D01*
X608050Y334139D01*
X607183Y335583D01*
X605450Y336306D01*
X603717Y336306D01*
X601983Y335583D01*
X601117Y334139D01*
G54D12*
X596206Y324750D02*
X596206Y323306D01*
X597072Y321861D01*
X597939Y321861D01*
G54D12*
X586095Y334139D02*
X586095Y326917D01*
X586961Y325472D01*
X588695Y324750D01*
X590428Y324750D01*
X592161Y325472D01*
X593028Y326917D01*
X593028Y334139D01*
X592161Y335583D01*
X590428Y336306D01*
X588695Y336306D01*
X586961Y335583D01*
X586095Y334139D01*
G54D12*
X582917Y331972D02*
X578584Y336306D01*
X578584Y324750D01*
G54D12*
X570206Y331250D02*
X570206Y324750D01*
G54D12*
X570206Y326194D02*
X571073Y325039D01*
X572806Y324750D01*
X574539Y325039D01*
X575406Y326194D01*
X575406Y331250D01*
G54D10*
X531100Y254000D02*
X531100Y228600D01*
X484900Y228600D01*
X484900Y254000D01*
X531100Y254000D01*
G54D10*
X509600Y249300D02*
X509600Y233300D01*
G54D10*
X506400Y249300D02*
X506400Y233300D01*
G54D10*
X509600Y241300D02*
X511200Y241300D01*
G54D10*
X506400Y241300D02*
X504800Y241300D01*
G54D12*
X514661Y269589D02*
X514661Y262367D01*
X515527Y260922D01*
X517261Y260200D01*
X518994Y260200D01*
X520727Y260922D01*
X521594Y262367D01*
X521594Y269589D01*
X520727Y271033D01*
X518994Y271756D01*
X517261Y271756D01*
X515527Y271033D01*
X514661Y269589D01*
G54D12*
X509750Y260200D02*
X509750Y258756D01*
X510616Y257311D01*
X511483Y257311D01*
G54D12*
X499639Y269589D02*
X499639Y262367D01*
X500505Y260922D01*
X502239Y260200D01*
X503972Y260200D01*
X505705Y260922D01*
X506572Y262367D01*
X506572Y269589D01*
X505705Y271033D01*
X503972Y271756D01*
X502239Y271756D01*
X500505Y271033D01*
X499639Y269589D01*
G54D12*
X496461Y267422D02*
X492128Y271756D01*
X492128Y260200D01*
G54D12*
X483750Y266700D02*
X483750Y260200D01*
G54D12*
X483750Y261644D02*
X484617Y260489D01*
X486350Y260200D01*
X488083Y260489D01*
X488950Y261644D01*
X488950Y266700D01*
M02*
